<svg xmlns="http://www.w3.org/2000/svg" viewBox="0 0 983 983"><title>Asset 3</title><g id="Layer_2" data-name="Layer 2"><g id="Layer_1-2" data-name="Layer 1"><path d="M491,676a142.77,142.77,0,0,0,16-.67c5.33-.5,10.64-1.23,15.9-2.16a197.91,197.91,0,0,0,31-8,172,172,0,0,0,55.32-31.35q6-5.21,11.62-10.91c3.67-3.85,7.18-7.84,10.49-12a174.49,174.49,0,0,0,17.33-26.7,219.18,219.18,0,0,0,20.63-60.13,291.45,291.45,0,0,0,4.4-31.62,112.11,112.11,0,0,0,.36-15.76A118.31,118.31,0,0,0,672.26,461a159.73,159.73,0,0,0-8.93-30.37A235.38,235.38,0,0,0,649.44,402c-5.22-9.26-11-18.21-17.07-27s-12.57-17.22-19.27-25.51C599.64,333,585.24,317.18,570.22,302c-30-30.45-62.25-58.69-95.48-85.65s-67.59-52.58-102.47-77.44S301.75,90.22,265.66,67.12,193.09,21.5,156,0A2505.78,2505.78,0,0,1,374.48,135.74q13.21,9.18,26.3,18.55t26,19q25.82,19.22,51,39.35c33.42,26.94,65.82,55.25,96.06,85.83,15.08,15.32,29.56,31.26,43.11,48s26.1,34.35,36.66,53.23a240,240,0,0,1,14,29.26,164.15,164.15,0,0,1,9,31.27,115.45,115.45,0,0,1,1.35,32.59,295.48,295.48,0,0,1-4.8,32,222.65,222.65,0,0,1-21.61,60.86,177.47,177.47,0,0,1-17.92,27c-3.4,4.2-7,8.22-10.79,12.09s-7.78,7.5-11.94,10.94a173.86,173.86,0,0,1-56.46,30.73,197.57,197.57,0,0,1-31.31,7.52c-5.31.81-10.64,1.42-16,1.79A143,143,0,0,1,491,676Z"/><path d="M676,492a142.79,142.79,0,0,0-.67-16c-.5-5.33-1.23-10.64-2.16-15.9a197.9,197.9,0,0,0-8-31,172,172,0,0,0-31.35-55.32q-5.21-6-10.91-11.62c-3.85-3.67-7.84-7.18-12-10.49a174.49,174.49,0,0,0-26.7-17.33,219.18,219.18,0,0,0-60.13-20.63,291.45,291.45,0,0,0-31.62-4.4,112.11,112.11,0,0,0-15.76-.36A118.29,118.29,0,0,0,461,310.74a159.73,159.73,0,0,0-30.37,8.93A235.37,235.37,0,0,0,402,333.56c-9.26,5.22-18.21,11-27,17.07s-17.22,12.57-25.51,19.27C333,383.36,317.18,397.76,302,412.78c-30.45,30-58.69,62.25-85.65,95.48s-52.58,67.59-77.44,102.47S90.22,681.25,67.12,717.34,21.5,789.91,0,827A2505.78,2505.78,0,0,1,135.74,608.52q9.18-13.21,18.55-26.3t19-26q19.22-25.82,39.35-51c26.94-33.42,55.25-65.82,85.83-96.06,15.32-15.08,31.26-29.56,48-43.11s34.35-26.1,53.23-36.66a240,240,0,0,1,29.26-14,164.16,164.16,0,0,1,31.27-9,115.45,115.45,0,0,1,32.59-1.35,295.44,295.44,0,0,1,32,4.8,222.65,222.65,0,0,1,60.86,21.61,177.47,177.47,0,0,1,27,17.92c4.2,3.4,8.22,7,12.09,10.79s7.5,7.78,10.94,11.94a173.86,173.86,0,0,1,30.73,56.46,197.56,197.56,0,0,1,7.52,31.31c.81,5.31,1.42,10.64,1.79,16A142.94,142.94,0,0,1,676,492Z"/><path d="M492,307a142.77,142.77,0,0,0-16,.67c-5.33.5-10.64,1.23-15.9,2.16a197.9,197.9,0,0,0-31,8,172,172,0,0,0-55.32,31.35q-6,5.21-11.62,10.91c-3.67,3.85-7.18,7.84-10.49,12a174.49,174.49,0,0,0-17.33,26.7,219.17,219.17,0,0,0-20.63,60.13,291.45,291.45,0,0,0-4.4,31.62,112.11,112.11,0,0,0-.36,15.76A118.29,118.29,0,0,0,310.74,522a159.73,159.73,0,0,0,8.93,30.37A235.36,235.36,0,0,0,333.56,581c5.22,9.26,11,18.21,17.07,27s12.57,17.22,19.27,25.51C383.36,650,397.76,665.82,412.78,681c30,30.45,62.25,58.69,95.48,85.65s67.59,52.58,102.47,77.44,70.52,48.67,106.61,71.77S789.91,961.5,827,983A2505.77,2505.77,0,0,1,608.52,847.26q-13.21-9.18-26.3-18.55t-26-19q-25.82-19.22-51-39.35c-33.42-26.94-65.82-55.25-96.06-85.83-15.08-15.32-29.56-31.26-43.11-48S340,602.17,329.45,583.3a240,240,0,0,1-14-29.26,164.16,164.16,0,0,1-9-31.27,115.45,115.45,0,0,1-1.35-32.59,295.43,295.43,0,0,1,4.8-32,222.65,222.65,0,0,1,21.61-60.86,177.47,177.47,0,0,1,17.92-27c3.4-4.2,7-8.22,10.79-12.09s7.78-7.5,11.94-10.94a173.86,173.86,0,0,1,56.46-30.73,197.57,197.57,0,0,1,31.31-7.52c5.31-.81,10.64-1.42,16-1.79A143,143,0,0,1,492,307Z"/><path d="M307,491a142.77,142.77,0,0,0,.67,16c.5,5.33,1.23,10.64,2.16,15.9a197.91,197.91,0,0,0,8,31,172,172,0,0,0,31.35,55.32q5.21,6,10.91,11.62c3.85,3.67,7.84,7.18,12,10.49a174.49,174.49,0,0,0,26.7,17.33,219.17,219.17,0,0,0,60.13,20.63,291.45,291.45,0,0,0,31.62,4.4,112.11,112.11,0,0,0,15.76.36A118.29,118.29,0,0,0,522,672.26a159.73,159.73,0,0,0,30.37-8.93A235.36,235.36,0,0,0,581,649.44c9.26-5.22,18.21-11,27-17.07s17.22-12.57,25.51-19.27C650,599.64,665.82,585.24,681,570.22c30.45-30,58.69-62.25,85.65-95.48s52.58-67.59,77.44-102.47,48.67-70.52,71.77-106.61S961.5,193.09,983,156A2505.77,2505.77,0,0,1,847.26,374.48q-9.18,13.21-18.55,26.3t-19,26q-19.22,25.82-39.35,51c-26.94,33.42-55.25,65.82-85.83,96.06-15.32,15.08-31.26,29.56-48,43.11S602.17,643,583.3,653.55a240,240,0,0,1-29.26,14,164.16,164.16,0,0,1-31.27,9,115.45,115.45,0,0,1-32.59,1.35,295.43,295.43,0,0,1-32-4.8,222.65,222.65,0,0,1-60.86-21.61,177.47,177.47,0,0,1-27-17.92c-4.2-3.4-8.22-7-12.09-10.79s-7.5-7.78-10.94-11.94a173.86,173.86,0,0,1-30.73-56.46,197.57,197.57,0,0,1-7.52-31.31c-.81-5.31-1.42-10.64-1.79-16A143,143,0,0,1,307,491Z"/></g></g></svg>