<svg xmlns="http://www.w3.org/2000/svg" viewBox="0 0 182 199"><title>Asset 7</title><g id="Layer_2" data-name="Layer 2"><g id="Layer_1-2" data-name="Layer 1"><path d="M142.78,0H39.22A39.27,39.27,0,0,0,0,39.22V159.78A39.27,39.27,0,0,0,39.22,199H142.78A39.27,39.27,0,0,0,182,159.78V39.22A39.27,39.27,0,0,0,142.78,0ZM170,159.78A27.25,27.25,0,0,1,142.78,187H39.22A27.25,27.25,0,0,1,12,159.78V39.22A27.25,27.25,0,0,1,39.22,12H142.78A27.25,27.25,0,0,1,170,39.22Z"/><path d="M142.78,13.5H39.22A25.75,25.75,0,0,0,13.5,39.22V159.78A25.75,25.75,0,0,0,39.22,185.5H142.78a25.75,25.75,0,0,0,25.72-25.72V39.22A25.75,25.75,0,0,0,142.78,13.5ZM85,173.82c-8.7,0-15-6.11-15-14.53s6.41-14.75,15.25-14.75,15,6.07,15,14.75S94,173.82,85,173.82Zm23.34-79.33C98.81,104.86,95,113.77,95.7,124.29l.28,7.06H75.17l-.57-6.83C73.08,112,78,99.34,89.19,87c9.91-10.71,15.65-18.69,15.65-27.79,0-10.35-7.4-16.39-20.29-16.58-8.07,0-16.82,2.45-22.26,6.24l-1.53,1.06L54.07,33.85l1-.69C63,27.9,76.16,24.5,88.7,24.5,118,24.5,128.46,42,128.46,56.9,128.46,71.46,120.13,81.67,108.37,94.49Z"/><path d="M85.26,146c-8,0-13.75,5.47-13.75,13.25,0,7.36,5.5,13,13.52,13,8.48,0,13.75-5.67,13.75-13C98.78,151.51,93.28,146,85.26,146ZM127,56.9C127,40.93,115,26,88.7,26c-12.15,0-25.21,3.36-32.77,8.41l5.5,13.24c5.73-4,14.89-6.51,23.14-6.51,14.44.21,21.77,7.35,21.77,18.08,0,9.46-5.73,17.66-16,28.8-11.46,12.61-15.58,25-14.21,36.37l.46,5.46H94.42l-.22-5.46c-.69-10.72,3-20,13.06-30.91C118.25,81.5,127,71.2,127,56.9Z"/></g></g></svg>