<svg xmlns="http://www.w3.org/2000/svg" viewBox="0 0 182 213"><defs><style>.cls-1{fill:#fff;}</style></defs><title>Asset 3</title><g id="Layer_2" data-name="Layer 2"><g id="Layer_1-2" data-name="Layer 1"><path class="cls-1" d="M78.74,132.3a4.29,4.29,0,0,1,0,6.07L56.88,160.23a4.29,4.29,0,0,1-6.07,0L39.26,148.67a4.29,4.29,0,0,1,6.07-6.07l7.91,7.91a.86.86,0,0,0,1.22,0L72.67,132.3A4.3,4.3,0,0,1,78.74,132.3Z"/><path class="cls-1" d="M78.74,73.3a4.29,4.29,0,0,1,0,6.07L56.88,101.23a4.29,4.29,0,0,1-6.07,0L39.26,89.67a4.29,4.29,0,0,1,6.07-6.07l7.91,7.91a.86.86,0,0,0,1.22,0L72.67,73.3A4.3,4.3,0,0,1,78.74,73.3Z"/><path class="cls-1" d="M144,151a4.62,4.62,0,0,1-1.76,3.54A6.63,6.63,0,0,1,138,156H102c-3.31,0-6-2.24-6-5a4.62,4.62,0,0,1,1.76-3.54A6.63,6.63,0,0,1,102,146h36C141.31,146,144,148.24,144,151Z"/><path class="cls-1" d="M144,92a4.62,4.62,0,0,1-1.76,3.54A6.63,6.63,0,0,1,138,97H102c-3.31,0-6-2.24-6-5a4.62,4.62,0,0,1,1.76-3.54A6.63,6.63,0,0,1,102,87h36C141.31,87,144,89.24,144,92Z"/><path class="cls-1" d="M144,20l-1.22,0H39.22L38,20A33.22,33.22,0,0,0,6,53.22V173.78A33.22,33.22,0,0,0,39.22,207H142.78A33.22,33.22,0,0,0,176,173.78V53.22A33.22,33.22,0,0,0,144,20Zm26,153.76A27.25,27.25,0,0,1,142.78,201H39.22A27.25,27.25,0,0,1,12,173.78V53.22A27.25,27.25,0,0,1,38,26V37.27C38,39.33,40.24,41,43,41s5-1.67,5-3.73V26H86V37.27C86,39.33,88.24,41,91,41s5-1.67,5-3.73V26h38V37.27c0,2.06,2.24,3.73,5,3.73s5-1.67,5-3.73V26a27.25,27.25,0,0,1,26,27.19Z"/><path d="M144,14l-1.22,0H39.22L38,14A39.28,39.28,0,0,0,0,53.22V173.78A39.27,39.27,0,0,0,39.22,213H142.78A39.27,39.27,0,0,0,182,173.78V53.22A39.28,39.28,0,0,0,144,14Zm26,159.76A27.25,27.25,0,0,1,142.78,201H39.22A27.25,27.25,0,0,1,12,173.78V53.22A27.25,27.25,0,0,1,38,26c.41,0,.81,0,1.22,0H142.78c.41,0,.81,0,1.22,0a27.25,27.25,0,0,1,26,27.19Z"/><path class="cls-1" d="M144,26V37.27c0,2.06-2.24,3.73-5,3.73s-5-1.67-5-3.73V26H96V37.27C96,39.33,93.76,41,91,41s-5-1.67-5-3.73V26H48V37.27C48,39.33,45.76,41,43,41s-5-1.67-5-3.73V26A27.25,27.25,0,0,0,12,53.22V173.78A27.25,27.25,0,0,0,39.22,201H142.78A27.25,27.25,0,0,0,170,173.78V53.22A27.25,27.25,0,0,0,144,26ZM78.74,138.37,56.88,160.23a4.29,4.29,0,0,1-6.07,0L39.26,148.67a4.29,4.29,0,0,1,6.07-6.07l7.91,7.91a.86.86,0,0,0,1.22,0L72.67,132.3a4.3,4.3,0,0,1,7.33,3A4.25,4.25,0,0,1,78.74,138.37Zm0-59L56.88,101.23a4.29,4.29,0,0,1-6.07,0L39.26,89.67a4.29,4.29,0,0,1,6.07-6.07l7.91,7.91a.86.86,0,0,0,1.22,0L72.67,73.3a4.3,4.3,0,0,1,7.33,3A4.25,4.25,0,0,1,78.74,79.37Zm63.5,75.17A6.63,6.63,0,0,1,138,156H102c-3.31,0-6-2.24-6-5a4.62,4.62,0,0,1,1.76-3.54A6.63,6.63,0,0,1,102,146h36c3.31,0,6,2.24,6,5A4.62,4.62,0,0,1,142.24,154.54Zm0-59A6.63,6.63,0,0,1,138,97H102c-3.31,0-6-2.24-6-5a4.62,4.62,0,0,1,1.76-3.54A6.63,6.63,0,0,1,102,87h36c3.31,0,6,2.24,6,5A4.62,4.62,0,0,1,142.24,95.54Z"/><path d="M48,3.73V37.27C48,39.33,45.76,41,43,41s-5-1.67-5-3.73V3.73C38,1.67,40.24,0,43,0a6,6,0,0,1,3.54,1.09A3.35,3.35,0,0,1,48,3.73Z"/><path d="M96,3.73V37.27C96,39.33,93.76,41,91,41s-5-1.67-5-3.73V3.73C86,1.67,88.24,0,91,0a6,6,0,0,1,3.54,1.09A3.35,3.35,0,0,1,96,3.73Z"/><path d="M144,3.73V37.27c0,2.06-2.24,3.73-5,3.73s-5-1.67-5-3.73V3.73C134,1.67,136.24,0,139,0a6,6,0,0,1,3.54,1.09A3.35,3.35,0,0,1,144,3.73Z"/><path d="M80,76.34a4.25,4.25,0,0,1-1.26,3L56.88,101.23a4.29,4.29,0,0,1-6.07,0L39.26,89.67a4.29,4.29,0,0,1,6.07-6.07l7.91,7.91a.86.86,0,0,0,1.22,0L72.67,73.3a4.3,4.3,0,0,1,7.33,3Z"/><path d="M144,92a4.62,4.62,0,0,1-1.76,3.54A6.63,6.63,0,0,1,138,97H102c-3.31,0-6-2.24-6-5a4.62,4.62,0,0,1,1.76-3.54A6.63,6.63,0,0,1,102,87h36C141.31,87,144,89.24,144,92Z"/><path d="M80,135.34a4.25,4.25,0,0,1-1.26,3L56.88,160.23a4.29,4.29,0,0,1-6.07,0L39.26,148.67a4.29,4.29,0,0,1,6.07-6.07l7.91,7.91a.86.86,0,0,0,1.22,0L72.67,132.3a4.3,4.3,0,0,1,7.33,3Z"/><path d="M144,151a4.62,4.62,0,0,1-1.76,3.54A6.63,6.63,0,0,1,138,156H102c-3.31,0-6-2.24-6-5a4.62,4.62,0,0,1,1.76-3.54A6.63,6.63,0,0,1,102,146h36C141.31,146,144,148.24,144,151Z"/></g></g></svg>