<svg xmlns="http://www.w3.org/2000/svg" viewBox="0 0 182 199"><title>Asset 5</title><g id="Layer_2" data-name="Layer 2"><g id="Layer_1-2" data-name="Layer 1"><path d="M142.78,0H39.22A39.27,39.27,0,0,0,0,39.22V159.78A39.27,39.27,0,0,0,39.22,199H142.78A39.27,39.27,0,0,0,182,159.78V39.22A39.27,39.27,0,0,0,142.78,0ZM170,159.78A27.25,27.25,0,0,1,142.78,187H39.22A27.25,27.25,0,0,1,12,159.78V39.22A27.25,27.25,0,0,1,39.22,12H142.78A27.25,27.25,0,0,1,170,39.22Z"/><circle cx="43" cy="100" r="16"/><circle cx="93" cy="100" r="12.8"/><circle cx="139" cy="100" r="10.24"/><path d="M141.56,14.06H40.44A26.61,26.61,0,0,0,13.86,40.64V158.36a26.61,26.61,0,0,0,26.58,26.58H141.56a26.61,26.61,0,0,0,26.58-26.58V40.64A26.61,26.61,0,0,0,141.56,14.06ZM43,119.2A19.2,19.2,0,1,1,62.2,100,19.19,19.19,0,0,1,43,119.2Zm50-3.84A15.36,15.36,0,1,1,108.36,100,15.36,15.36,0,0,1,93,115.36Zm46-3.07A12.29,12.29,0,1,1,151.29,100,12.29,12.29,0,0,1,139,112.29Z"/></g></g></svg>