<svg xmlns="http://www.w3.org/2000/svg" viewBox="0 0 194 194"><title>Asset 10</title><g id="Layer_2" data-name="Layer 2"><g id="Layer_1-2" data-name="Layer 1"><path d="M97,12A85,85,0,1,1,12,97,85,85,0,0,1,97,12M97,0a97,97,0,1,0,97,97A97.11,97.11,0,0,0,97,0Z"/><path d="M160,61.8v69.4a28.89,28.89,0,0,1-28.85,28.86H70.61a4.74,4.74,0,0,1,0-9.47h60.54a19.41,19.41,0,0,0,19.38-19.39V61.8a19.41,19.41,0,0,0-19.38-19.39H70.61a4.73,4.73,0,0,1,0-9.47h60.54A28.89,28.89,0,0,1,160,61.8Z"/><path d="M99.22,98,78.58,118.68a3.49,3.49,0,1,1-4.94-4.93L87.71,99.68H39.49a3.49,3.49,0,0,1,0-7H87.71L73.64,78.63a3.49,3.49,0,0,1,4.94-4.94L99.22,94.34A2.61,2.61,0,0,1,99.22,98Z"/></g></g></svg>