<svg xmlns="http://www.w3.org/2000/svg" viewBox="0 0 182 199"><defs><style>.cls-1{fill:#fff;}.cls-2{fill:none;}</style></defs><title>Asset 4</title><g id="Layer_2" data-name="Layer 2"><g id="Layer_1-2" data-name="Layer 1"><path class="cls-1" d="M142.78,6H39.22A33.22,33.22,0,0,0,6,39.22V159.78A33.22,33.22,0,0,0,39.22,193H142.78A33.22,33.22,0,0,0,176,159.78V39.22A33.22,33.22,0,0,0,142.78,6ZM170,159.78A27.25,27.25,0,0,1,142.78,187H39.22A27.25,27.25,0,0,1,12,159.78V39.22A27.25,27.25,0,0,1,39.22,12H142.78A27.25,27.25,0,0,1,170,39.22Z"/><path d="M142.78,0H39.22A39.27,39.27,0,0,0,0,39.22V159.78A39.27,39.27,0,0,0,39.22,199H142.78A39.27,39.27,0,0,0,182,159.78V39.22A39.27,39.27,0,0,0,142.78,0ZM170,159.78A27.25,27.25,0,0,1,142.78,187H39.22A27.25,27.25,0,0,1,12,159.78V39.22A27.25,27.25,0,0,1,39.22,12H142.78A27.25,27.25,0,0,1,170,39.22Z"/><path class="cls-2" d="M142.78,12H39.22A27.25,27.25,0,0,0,12,39.22V159.78A27.25,27.25,0,0,0,39.22,187H142.78A27.25,27.25,0,0,0,170,159.78V39.22A27.25,27.25,0,0,0,142.78,12ZM158,111.16a7.78,7.78,0,0,1-7.77,7.77H120.54a10.64,10.64,0,0,0-10.61,10.61v29.69a7.77,7.77,0,0,1-7.77,7.77H78.84a7.78,7.78,0,0,1-7.77-7.77V129.54a10.64,10.64,0,0,0-10.61-10.61H30.77A7.77,7.77,0,0,1,23,111.16V87.84a7.78,7.78,0,0,1,7.77-7.77H60.46A10.64,10.64,0,0,0,71.07,69.46V39.77A7.77,7.77,0,0,1,78.84,32h23.32a7.78,7.78,0,0,1,7.77,7.77V69.46a10.64,10.64,0,0,0,10.61,10.61h29.69A7.77,7.77,0,0,1,158,87.84Z"/><path d="M80.22,159a6.85,6.85,0,0,1-6.85-6.85V126A9.36,9.36,0,0,0,64,116.63H37.85A6.85,6.85,0,0,1,31,109.78V89.22a6.85,6.85,0,0,1,6.85-6.85H64A9.36,9.36,0,0,0,73.37,73V46.85A6.85,6.85,0,0,1,80.22,40h20.56a6.85,6.85,0,0,1,6.85,6.85V73A9.36,9.36,0,0,0,117,82.37h26.17A6.85,6.85,0,0,1,150,89.22v20.56a6.85,6.85,0,0,1-6.85,6.85H117a9.36,9.36,0,0,0-9.35,9.35v26.17a6.85,6.85,0,0,1-6.85,6.85Z"/></g></g></svg>