<svg xmlns="http://www.w3.org/2000/svg" viewBox="0 0 182 213"><defs><style>.cls-1{fill:#fff;stroke:#000;stroke-miterlimit:10;stroke-width:12px;}</style></defs><title>Asset 1</title><g id="Layer_2" data-name="Layer 2"><g id="Layer_1-2" data-name="Layer 1"><rect class="cls-1" x="6" y="20" width="170" height="187" rx="33.22" ry="33.22"/><path d="M43,41h0c-2.76,0-5-1.67-5-3.73V3.73C38,1.67,40.24,0,43,0h0c2.76,0,5,1.67,5,3.73V37.27C48,39.33,45.76,41,43,41Z"/><path d="M91,41h0c-2.76,0-5-1.67-5-3.73V3.73C86,1.67,88.24,0,91,0h0c2.76,0,5,1.67,5,3.73V37.27C96,39.33,93.76,41,91,41Z"/><path d="M139,41h0c-2.76,0-5-1.67-5-3.73V3.73C134,1.67,136.24,0,139,0h0c2.76,0,5,1.67,5,3.73V37.27C144,39.33,141.76,41,139,41Z"/><path d="M50.81,101.23,39.26,89.67a4.29,4.29,0,0,1,0-6.07h0a4.29,4.29,0,0,1,6.07,0l7.91,7.91a.87.87,0,0,0,1.23,0L72.67,73.3a4.29,4.29,0,0,1,6.07,0h0a4.29,4.29,0,0,1,0,6.07L56.88,101.23A4.29,4.29,0,0,1,50.81,101.23Z"/><path d="M138,97H102c-3.31,0-6-2.24-6-5h0c0-2.76,2.69-5,6-5h36c3.31,0,6,2.24,6,5h0C144,94.76,141.31,97,138,97Z"/><path d="M50.81,160.23,39.26,148.67a4.29,4.29,0,0,1,0-6.07h0a4.29,4.29,0,0,1,6.07,0l7.91,7.91a.87.87,0,0,0,1.23,0L72.67,132.3a4.29,4.29,0,0,1,6.07,0h0a4.29,4.29,0,0,1,0,6.07L56.88,160.23A4.29,4.29,0,0,1,50.81,160.23Z"/><path d="M138,156H102c-3.31,0-6-2.24-6-5h0c0-2.76,2.69-5,6-5h36c3.31,0,6,2.24,6,5h0C144,153.76,141.31,156,138,156Z"/></g></g></svg>