<svg xmlns="http://www.w3.org/2000/svg" viewBox="0 0 194 194"><defs><style>.cls-1,.cls-2{stroke:#000;stroke-miterlimit:10;}.cls-1{stroke-width:2px;}</style></defs><title>Asset 13</title><g id="Layer_2" data-name="Layer 2"><g id="Layer_1-2" data-name="Layer 1"><path d="M97,12A85,85,0,1,1,12,97,85,85,0,0,1,97,12M97,0a97,97,0,1,0,97,97A97.11,97.11,0,0,0,97,0Z"/><path class="cls-1" d="M163.78,59.61A19,19,0,0,0,149,52.54H47a19,19,0,0,0-19,19v58.93a19,19,0,0,0,19,19H149a19,19,0,0,0,19-19V71.53A18.87,18.87,0,0,0,163.78,59.61ZM162,130.47a13,13,0,0,1-13,13H47a13,13,0,0,1-13-13V71.53a13,13,0,0,1,13-13H149a12.7,12.7,0,0,1,3.46.47A13.05,13.05,0,0,1,162,71.53Z"/><path class="cls-2" d="M93,101.38,32.39,63.25l3.19-5.06L93,94.31a9.41,9.41,0,0,0,10,0l57.41-36.13,3.19,5.06L103,101.38A9.41,9.41,0,0,1,93,101.38Z"/></g></g></svg>