<svg xmlns="http://www.w3.org/2000/svg" viewBox="0 0 182 199"><defs><style>.cls-1{fill:#fff;}.cls-2,.cls-3{stroke:#000;stroke-miterlimit:10;}.cls-2{stroke-width:2px;}</style></defs><title>Asset 12</title><g id="Layer_2" data-name="Layer 2"><g id="Layer_1-2" data-name="Layer 1"><rect class="cls-1" x="6" y="6" width="170" height="187" rx="33.22" ry="33.22"/><path d="M142.78,199H39.22A39.27,39.27,0,0,1,0,159.78V39.22A39.27,39.27,0,0,1,39.22,0H142.78A39.27,39.27,0,0,1,182,39.22V159.78A39.27,39.27,0,0,1,142.78,199ZM39.22,12A27.25,27.25,0,0,0,12,39.22V159.78A27.25,27.25,0,0,0,39.22,187H142.78A27.25,27.25,0,0,0,170,159.78V39.22A27.25,27.25,0,0,0,142.78,12Z"/><path class="cls-2" d="M156.78,58.61A19,19,0,0,0,142,51.54H40a19,19,0,0,0-19,19v58.93a19,19,0,0,0,19,19H142a19,19,0,0,0,19-19V70.53A18.87,18.87,0,0,0,156.78,58.61ZM155,129.47a13,13,0,0,1-13,13H40a13,13,0,0,1-13-13V70.53a13,13,0,0,1,13-13H142a12.7,12.7,0,0,1,3.46.47A13.05,13.05,0,0,1,155,70.53Z"/><path class="cls-3" d="M86,100.38,25.39,62.25l3.19-5.06L86,93.31a9.41,9.41,0,0,0,10,0l57.41-36.13,3.19,5.06L96,100.38A9.41,9.41,0,0,1,86,100.38Z"/></g></g></svg>