<svg xmlns="http://www.w3.org/2000/svg" viewBox="0 0 194 194"><title>Asset 11</title><g id="Layer_2" data-name="Layer 2"><g id="Layer_1-2" data-name="Layer 1"><path d="M97,12A85,85,0,1,1,12,97,85,85,0,0,1,97,12M97,0a97,97,0,1,0,97,97A97.11,97.11,0,0,0,97,0Z"/><path d="M160,62.8v69.4a28.89,28.89,0,0,1-28.85,28.86H70.61a4.74,4.74,0,0,1,0-9.47h60.54a19.41,19.41,0,0,0,19.38-19.39V62.8a19.41,19.41,0,0,0-19.38-19.39H70.61a4.73,4.73,0,0,1,0-9.47h60.54A28.89,28.89,0,0,1,160,62.8Z"/><path d="M100,97.19a3.5,3.5,0,0,1-3.49,3.49H48.28l14.07,14.07a3.49,3.49,0,1,1-4.94,4.93L36.76,99a2.64,2.64,0,0,1,0-3.7L57.41,74.7a3.58,3.58,0,0,1,4.94,0,3.49,3.49,0,0,1,0,4.93L48.28,93.7H96.5A3.49,3.49,0,0,1,100,97.19Z"/></g></g></svg>